<svg xmlns="http://www.w3.org/2000/svg" viewBox="0 0 100 100" width="100%" height="100%" fill="none">
  <!-- Rounded character base silhouette emerging from corner -->
  <path d="M12 95 C12 40, 25 18, 55 18 C85 18, 95 38, 95 95 Z" fill="#2D241E" />
  
  <!-- Warm Terracotta Chest Area -->
  <path d="M30 95 C30 65, 45 56, 68 56 C90 56, 95 72, 95 95 Z" fill="#D9714A" />

  <!-- Verification Glasses / Observation Lens Rims -->
  <!-- Left Eye & Frame -->
  <circle cx="44" cy="46" r="17" fill="#D9714A" stroke="#2D241E" stroke-width="2" />
  <circle cx="44" cy="46" r="13" fill="#FFFFFF" />
  <circle cx="44" cy="46" r="7.5" fill="#2D241E" />
  <circle cx="41.5" cy="43.5" r="2.5" fill="#FFFFFF" />

  <!-- Right Eye & Frame -->
  <circle cx="74" cy="42" r="19" fill="#D9714A" stroke="#2D241E" stroke-width="2" />
  <circle cx="74" cy="42" r="14.5" fill="#FFFFFF" />
  <circle cx="74" cy="42" r="8.5" fill="#2D241E" />
  <circle cx="71" cy="39" r="2.8" fill="#FFFFFF" />

  <!-- Glasses Bridge -->
  <path d="M58 45 Q60 41 62 43" stroke="#D9714A" stroke-width="3.5" stroke-linecap="round" fill="none" />

  <!-- Tiny Beak -->
  <path d="M57 52 L61 58 L65 52 Z" fill="#D9714A" />
</svg>
